HIERARCHY
ROOT hip
{
  OFFSET 0 0 0
  CHANNELS 6 Xposition Yposition Zposition Zrotation Yrotation Xrotation
  JOINT abdomen
  {
    OFFSET 0 20.6881 -0.73152
    CHANNELS 3 Zrotation Xrotation Yrotation
    JOINT chest
    {
      OFFSET 0 11.7043 -0.48768
      CHANNELS 3 Zrotation Xrotation Yrotation
      JOINT neck
      {
        OFFSET 0 22.1894 -2.19456
        CHANNELS 3 Zrotation Xrotation Yrotation
        JOINT head
        {
          OFFSET -0.24384 7.07133 1.2192
          CHANNELS 3 Zrotation Xrotation Yrotation
          JOINT leftEye
          {
            OFFSET 4.14528 8.04674 8.04672
            CHANNELS 3 Zrotation Xrotation Yrotation
            End Site
            {
              OFFSET 1 0 0
            }
          }
          JOINT rightEye
          {
            OFFSET -3.6576 8.04674 8.04672
            CHANNELS 3 Zrotation Xrotation Yrotation
            End Site
            {
              OFFSET 1 0 0
            }
          }
        }
      }
      JOINT rCollar
      {
        OFFSET -2.68224 19.2634 -4.8768
        CHANNELS 3 Zrotation Xrotation Yrotation
        JOINT rShldr
        {
          OFFSET -8.77824 -1.95073 1.46304
          CHANNELS 3 Zrotation Xrotation Yrotation
          JOINT rForeArm
          {
            OFFSET -28.1742 -1.7115 0.48768
            CHANNELS 3 Zrotation Xrotation Yrotation
            JOINT rHand
            {
              OFFSET -22.5879 0.773209 7.07136
              CHANNELS 3 Zrotation Xrotation Yrotation
              JOINT rThumb1
              {
                OFFSET -1.2192 -0.487915 3.41376
                CHANNELS 3 Zrotation Xrotation Yrotation
                JOINT rThumb2
                {
                  OFFSET -3.37035 -0.52449 3.41376
                  CHANNELS 3 Zrotation Xrotation Yrotation
                  End Site
                  {
                    OFFSET -1.78271 -1.18214 1.43049
                  }
                }
              }
              JOINT rIndex1
              {
                OFFSET -7.75947 0.938293 5.60832
                CHANNELS 3 Zrotation Xrotation Yrotation
                JOINT rIndex2
                {
                  OFFSET -2.54057 -0.884171 1.56538
                  CHANNELS 3 Zrotation Xrotation Yrotation
                  End Site
                  {
                    OFFSET -1.62519 -0.234802 1.16502
                  }
                }
              }
              JOINT rMid1
              {
                OFFSET -8.24714 1.18213 3.41376
                CHANNELS 3 Zrotation Xrotation Yrotation
                JOINT rMid2
                {
                  OFFSET -3.10165 -0.590103 1.0647
                  CHANNELS 3 Zrotation Xrotation Yrotation
                  End Site
                  {
                    OFFSET -2.48547 -0.328903 0.83742
                  }
                }
              }
              JOINT rRing1
              {
                OFFSET -8.82822 0.546677 1.51678
                CHANNELS 3 Zrotation Xrotation Yrotation
                JOINT rRing2
                {
                  OFFSET -2.60934 -0.819778 -0.0198488
                  CHANNELS 3 Zrotation Xrotation Yrotation
                  End Site
                  {
                    OFFSET -2.33842 -0.294052 0.168128
                  }
                }
              }
              JOINT rPinky1
              {
                OFFSET -8.27202 -0.0477905 -0.4584
                CHANNELS 3 Zrotation Xrotation Yrotation
                JOINT rPinky2
                {
                  OFFSET -1.82734 -0.647385 -0.700984
                  CHANNELS 3 Zrotation Xrotation Yrotation
                  End Site
                  {
                    OFFSET -1.69225 -0.51767 -0.607171
                  }
                }
              }
            }
          }
        }
      }
      JOINT lCollar
      {
        OFFSET 2.68224 19.2634 -4.8768
        CHANNELS 3 Zrotation Xrotation Yrotation
        JOINT lShldr
        {
          OFFSET 8.77824 -1.95073 1.46304
          CHANNELS 3 Zrotation Xrotation Yrotation
          JOINT lForeArm
          {
            OFFSET 28.1742 -1.7115 0.48768
            CHANNELS 3 Zrotation Xrotation Yrotation
            JOINT lHand
            {
              OFFSET 22.5879 0.773209 7.07136
              CHANNELS 3 Zrotation Xrotation Yrotation
              JOINT lThumb1
              {
                OFFSET 1.2192 -0.487915 3.41376
                CHANNELS 3 Zrotation Xrotation Yrotation
                JOINT lThumb2
                {
                  OFFSET 3.37035 -0.52449 3.41376
                  CHANNELS 3 Zrotation Xrotation Yrotation
                  End Site
                  {
                    OFFSET 1.78271 -1.18214 1.43049
                  }
                }
              }
              JOINT lIndex1
              {
                OFFSET 7.75947 0.938293 5.60832
                CHANNELS 3 Zrotation Xrotation Yrotation
                JOINT lIndex2
                {
                  OFFSET 2.54057 -0.884171 1.56538
                  CHANNELS 3 Zrotation Xrotation Yrotation
                  End Site
                  {
                    OFFSET 1.62519 -0.234802 1.16502
                  }
                }
              }
              JOINT lMid1
              {
                OFFSET 8.24714 1.18213 3.41376
                CHANNELS 3 Zrotation Xrotation Yrotation
                JOINT lMid2
                {
                  OFFSET 3.10165 -0.590103 1.0647
                  CHANNELS 3 Zrotation Xrotation Yrotation
                  End Site
                  {
                    OFFSET 2.48547 -0.328903 0.83742
                  }
                }
              }
              JOINT lRing1
              {
                OFFSET 8.82822 0.546677 1.51678
                CHANNELS 3 Zrotation Xrotation Yrotation
                JOINT lRing2
                {
                  OFFSET 2.60934 -0.819778 -0.0198488
                  CHANNELS 3 Zrotation Xrotation Yrotation
                  End Site
                  {
                    OFFSET 2.33842 -0.294052 0.168128
                  }
                }
              }
              JOINT lPinky1
              {
                OFFSET 8.27202 -0.0477905 -0.4584
                CHANNELS 3 Zrotation Xrotation Yrotation
                JOINT lPinky2
                {
                  OFFSET 1.82734 -0.647385 -0.700984
                  CHANNELS 3 Zrotation Xrotation Yrotation
                  End Site
                  {
                    OFFSET 1.69225 -0.51767 -0.607171
                  }
                }
              }
            }
          }
        }
      }
    }
  }
  JOINT rButtock
  {
    OFFSET -8.77824 4.35084 1.2192
    CHANNELS 3 Zrotation Xrotation Yrotation
    JOINT rThigh
    {
      OFFSET 0 -1.70687 -2.19456
      CHANNELS 3 Zrotation Xrotation Yrotation
      JOINT rShin
      {
        OFFSET 0 -36.8199 0.73152
        CHANNELS 3 Zrotation Xrotation Yrotation
        JOINT rFoot
        {
          OFFSET 0.73152 -45.1104 -5.12064
          CHANNELS 3 Zrotation Xrotation Yrotation
          End Site
          {
            OFFSET -1.1221 -3.69964 12.103
          }
        }
      }
    }
  }
  JOINT lButtock
  {
    OFFSET 8.77824 4.35084 1.2192
    CHANNELS 3 Zrotation Xrotation Yrotation
    JOINT lThigh
    {
      OFFSET 0 -1.70687 -2.19456
      CHANNELS 3 Zrotation Xrotation Yrotation
      JOINT lShin
      {
        OFFSET 0 -36.8199 0.73152
        CHANNELS 3 Zrotation Xrotation Yrotation
        JOINT lFoot
        {
          OFFSET -0.73152 -45.1104 -5.12064
          CHANNELS 3 Zrotation Xrotation Yrotation
          End Site
          {
            OFFSET 1.1221 -3.69964 12.103
          }
        }
      }
    }
  }
}
MOTION
Frames:	4
Frame Time:	0.00833333
-1.6518288 0.6935412 1.4092097 -0.54211414 -5.3568544 0.39085692 -5.2908573 11.029456 6.762719 2.8825848 -8.453777 1.7234658 -4.0277834 13.745751 -2.2033687 4.073633 -27.198713 -3.3317227 -0.028490398 -0.06523639 0.46995318 0.009524298 -0.086002484 0.3979584 0.19737239 0.32743979 -0.2184065 -4.7257166 46.37042 75.16551 -9.251706 -4.300723 17.209673 -1.4413677 28.139088 3.916468 -0.16940576 -0.28389663 0.08542459 -0.33320308 0.4034928 0.13123466 -0.2775032 0.15806353 0.08620896 7.551997 5.653991 0.37037414 0.0055406704 -0.19186641 -0.013579096 2.9703078 0.7752069 0.18811536 -0.08542923 0.4159454 -0.061164126 10.571225 0.5032264 0.17243943 0.0053688483 0.5338365 0.19013725 2.296116 -0.7749864 -0.4849893 0.027574994 0.034920674 -0.089886725 -48.739334 17.185429 -76.52769 27.858074 -35.71424 -76.45004 0.34345657 -4.972595 1.9270759 0.039171986 0.21650423 0.08144534 -0.2635757 0.2969819 -0.070329174 -0.49757951 0.08112919 0.0504085 -7.3201003 5.3133698 -0.40228146 0.055806696 0.13939567 0.19785477 -3.250166 0.9910525 -0.15554266 0.504288 0.028880494 -0.20483066 -10.348462 0.37702012 0.19938469 0.11753852 -0.13693942 0.20214957 -2.0737162 -1.0063394 0.3885211 0.28517196 0.5405243 -0.06859388 -4.7918515 -36.712147 -6.244686 -155.73001 89.95137 156.88364 -2.8471773 2.4578903 -11.142437 -0.35690778 -0.18190372 0.1505841 2.0636744 -55.951935 17.266413 3.0136738 71.90624 -3.1434572 7.955158 -9.868108 22.397352
-1.5243322 0.6920808 1.6995026 1.4230798 -6.023125 1.0832549 -7.0074573 10.959731 6.866224 3.0400076 -7.8513765 1.5243134 -4.18381 13.241712 -2.302162 3.7638216 -26.903961 -3.8996596 0.13327894 0.22336176 0.35534623 0.0724465 -0.09219122 0.22863385 0.088784985 0.22766097 -0.052101105 -0.304487 44.799095 71.73534 -9.428556 -3.5559115 16.619532 -1.169948 28.945066 3.7043867 0.09677695 -0.2613886 0.18509646 -0.5475759 0.28936607 0.32012317 -0.20430173 0.1000445 -0.06132837 7.529276 5.567134 0.23405872 0.01079458 -0.26154277 0.053208757 2.84126 0.75189346 0.13197958 -0.058234297 0.65574926 0.046771318 10.566758 0.4310346 -0.042978268 -0.06181748 0.2222324 0.13191885 2.2348104 -0.68598926 -0.2767934 0.19514439 -0.043288883 0.06319211 -48.323467 16.839127 -76.45604 27.415405 -37.52571 -80.08012 0.32581526 -1.6430656 1.3082275 0.049391016 0.07618228 0.30342925 -0.12282024 -0.07567236 -0.025035577 -0.44059792 0.36055478 0.03808716 -7.6489305 5.2510448 -0.15255195 0.1983092 0.08056896 -0.36379412 -3.0621238 0.8583162 -0.55557853 0.4941759 0.1775698 -0.16498575 -10.415729 0.14959164 0.04395168 0.1401313 -0.1711291 0.112501904 -2.0236433 -1.0387303 0.5208887 0.36117864 0.25348303 0.050848834 -6.608982 -40.829895 -7.6503534 -163.94508 86.10616 163.85472 -2.5437007 1.0399821 -11.551967 -0.5072903 -0.09021697 0.009460452 2.214351 -53.67748 19.026672 1.5955188 71.712364 -2.108304 8.194109 -11.355105 23.523836
-1.321993 0.6032496 2.0197191 0.9653947 -4.78722 -0.5644927 -6.870599 11.311976 6.3438473 3.5087395 -7.820357 1.659129 -4.289291 12.985403 -2.8156333 3.9970713 -26.821754 -4.895712 -0.0031535728 0.006175531 0.29116893 -0.079586 -0.11997974 -0.039547913 0.11360909 -0.007584498 -0.060581855 5.720595 41.37579 66.60667 -9.873465 -3.4473994 17.059961 -0.92409444 26.295218 2.816553 0.012350796 -0.164614 0.17795555 -0.54093367 0.23057693 0.24946785 -0.11819439 0.015091782 -0.24702258 7.5927835 5.6282697 0.25795114 -0.04996315 -0.15708409 0.12216928 2.7232645 0.81506175 0.21513627 0.10809264 0.5428265 -0.008958859 10.489457 0.4609222 -0.0072570755 -0.099511795 0.12066829 -0.17622133 2.2947876 -0.5050068 -0.061556704 0.22368391 0.17486297 0.08240703 -48.13937 16.886726 -74.43672 27.084747 -39.11111 -83.25445 0.14405765 2.5415475 -0.3921505 -0.009853507 -0.17709604 0.23901352 0.017733091 -0.28724694 0.13607417 -0.29617733 0.3304521 0.11145427 -7.7707777 5.5886455 -0.27832785 0.16675586 -0.07446218 -0.48060337 -2.8630934 0.90038013 -0.5674895 0.149907 -0.032170564 0.09848868 -10.437725 0.24455576 -0.0028108894 0.12565716 -0.083578244 0.10921515 -2.1171608 -0.93874276 0.4734851 0.17065217 -0.03954231 0.18269005 -7.0200605 -45.04076 -7.401072 -163.75096 84.85302 163.96469 -3.4879377 -0.9917613 -14.057722 -0.57985264 0.035532348 -0.16842355 1.6624862 -51.395634 18.414717 2.0254474 72.59503 -2.5260854 9.248538 -13.496817 23.977564
-0.99973345 0.5653813 2.2181206 0.7929895 -3.7356532 -1.858606 -6.675963 11.836009 6.273882 3.7334776 -7.7055917 2.0202336 -4.2870517 13.156212 -3.3977551 4.370737 -26.34407 -5.8482604 -0.09777622 0.028127437 0.21435513 -0.28688136 -0.06949487 -0.2797211 0.32852408 0.0545 -0.07172349 10.922693 38.839455 63.236 -9.805529 -3.127577 16.420904 -0.3747464 24.74657 2.9722657 -0.017392116 -0.10888767 0.12468878 -0.29678965 0.256169 0.114561744 -0.015606341 0.07214499 -0.18930626 7.857421 5.8105183 0.24756393 -0.043022614 -0.028187975 0.18220007 2.7666924 0.8119054 0.363315 0.14241168 0.37813967 -0.07685136 10.523079 0.60787964 0.1362184 -0.04164766 0.11941143 -0.3645397 2.2762852 -0.42755732 0.021498766 0.13018759 0.28371632 0.14424692 -47.09104 17.281063 -73.12298 26.592297 -41.20927 -86.82785 0.28950053 7.657422 -1.5424012 -0.0006545242 -0.24866818 0.14513877 0.23383076 -0.30221698 0.32877398 -0.19130118 0.21190105 0.3219448 -7.8374224 5.6625805 -0.4498602 0.08539614 -0.16865775 -0.46624193 -2.7287722 0.9849197 -0.37595192 -0.07454508 -0.18611939 0.024480624 -10.4303255 0.42832467 0.01380632 -0.011866986 -0.044689607 0.08353673 -2.3043818 -0.93451613 0.35134095 0.12923181 -0.037997086 0.18530177 -6.5366955 -48.91456 -7.271261 -161.66158 85.57461 162.53795 -4.767879 -2.615964 -16.622192 -0.57495236 -0.04239541 -0.29964128 0.5001864 -49.10131 16.52852 2.3820674 72.843605 -2.6804237 10.060761 -14.742434 24.189901
